Coordinates
version=1
nRows=19
nColumns=63
inDegrees=yes

Units are S.I. units (second, meters, Newtons, ...)
If the header above contains a line with 'inDegrees', this indicates whether rotational values are in degrees (yes) or radians (no).

endheader
time	pelvis_tilt	pelvis_list	pelvis_rotation	pelvis_tx	pelvis_ty	pelvis_tz	hip_flexion_r	hip_adduction_r	hip_rotation_r	knee_angle_r	knee_angle_r_beta	ankle_angle_r	subtalar_angle_r	mtp_angle_r	hip_flexion_l	hip_adduction_l	hip_rotation_l	knee_angle_l	knee_angle_l_beta	ankle_angle_l	subtalar_angle_l	mtp_angle_l	L5_S1_Flex_Ext	L5_S1_Lat_Bending	L5_S1_axial_rotation	L4_L5_Flex_Ext	L4_L5_Lat_Bending	L4_L5_axial_rotation	L3_L4_Flex_Ext	L3_L4_Lat_Bending	L3_L4_axial_rotation	L2_L3_Flex_Ext	L2_L3_Lat_Bending	L2_L3_axial_rotation	L1_L2_Flex_Ext	L1_L2_Lat_Bending	L1_L2_axial_rotation	L1_T12_Flex_Ext	L1_T12_Lat_Bending	L1_T12_axial_rotation	Abs_r3	Abs_r2	Abs_r1	Abs_t1	Abs_t2	neck_flexion	neck_bending	neck_rotation	arm_flex_r	arm_add_r	arm_rot_r	elbow_flex_r	pro_sup_r	wrist_flex_r	wrist_dev_r	arm_flex_l	arm_add_l	arm_rot_l	elbow_flex_l	pro_sup_l	wrist_flex_l	wrist_dev_l
7.186441	7.645231	-17.626089	121.665789	0.175590	0.371148	0.655498	6.263026	3.014223	-25.692104	6.345281	0.110746	16.075000	6.031394	0.000000	8.445454	-1.570624	4.369408	3.115370	0.054373	17.950804	5.307194	0.000000	-0.136007	0.252232	-0.723857	-0.252579	0.335468	-0.769098	-0.223446	0.613276	-0.769098	-0.155442	0.613276	-0.633375	-0.126296	0.514351	-0.588134	-0.077714	0.390707	-0.542893	-0.971484	2.853296	-4.025877	0.000000	0.000000	7.474873	2.317211	20.194383	14.021171	-20.637130	31.370907	118.239187	75.718148	-2.240066	25.619347	21.604017	-1.183360	2.096545	148.177956	89.177844	1.198880	4.883754
7.203390	7.698345	-17.618436	121.952708	0.175284	0.371018	0.655876	6.263380	3.037920	-26.220147	6.285089	0.109695	16.122385	6.295604	0.000000	8.536330	-1.577570	4.651432	3.183898	0.055570	17.964079	5.280936	0.000000	-0.134609	0.247212	-0.738702	-0.249982	0.328792	-0.784871	-0.221149	0.601071	-0.784871	-0.153844	0.601071	-0.646364	-0.124998	0.504115	-0.600196	-0.076915	0.382931	-0.554027	-0.961496	2.796512	-4.108440	0.000000	0.000000	7.373421	2.248173	20.270310	14.118102	-20.442925	31.000273	118.025209	78.361216	-1.292943	24.453841	21.727797	-1.228572	1.332700	147.901321	89.181446	1.428570	4.075887
7.220339	7.721199	-17.580654	122.233514	0.174888	0.370812	0.656134	6.227692	3.047949	-26.642459	6.279355	0.109595	16.133423	6.311857	0.000000	8.570127	-1.568310	5.124247	3.270417	0.057080	17.948238	4.971565	0.000000	-0.134556	0.240922	-0.763433	-0.249883	0.320426	-0.811147	-0.221062	0.585777	-0.811147	-0.153784	0.585777	-0.668004	-0.124948	0.491287	-0.620289	-0.076885	0.373188	-0.572575	-0.961118	2.725354	-4.245985	0.000000	0.000000	7.230460	2.263593	20.487056	14.234762	-20.258595	30.768493	117.921730	81.062683	-0.695772	23.219923	21.937876	-1.335533	0.743158	147.646788	89.180968	1.292766	3.443934
7.237288	7.719583	-17.507167	122.516329	0.174365	0.370558	0.656249	6.147492	3.048114	-27.033745	6.324650	0.110386	16.117639	6.200208	0.000000	8.537452	-1.551600	5.747848	3.359327	0.058631	17.895630	4.438526	0.000000	-0.135954	0.235538	-0.814022	-0.252481	0.313265	-0.864898	-0.223360	0.572686	-0.864898	-0.155382	0.572686	-0.712269	-0.126247	0.480308	-0.661393	-0.077684	0.364848	-0.610516	-0.971109	2.664448	-4.527346	0.000000	0.000000	7.003196	2.364415	20.984645	14.432493	-20.087804	30.791975	117.848340	83.698869	-0.405063	21.807832	22.128425	-1.492097	0.226997	147.404605	89.177959	0.934714	2.779113
7.254237	7.703118	-17.403946	122.787542	0.173708	0.370253	0.656198	6.033451	3.043860	-27.382566	6.418024	0.112016	16.084200	5.993812	0.000000	8.440215	-1.536364	6.476652	3.435742	0.059965	17.811483	3.735306	0.000000	-0.137154	0.232014	-0.888653	-0.254709	0.308579	-0.944194	-0.225331	0.564119	-0.944194	-0.156753	0.564119	-0.777572	-0.127361	0.473123	-0.722031	-0.078370	0.359390	-0.666490	-0.979678	2.624590	-4.942423	0.000000	0.000000	6.679814	2.535837	21.748300	14.700849	-19.944376	31.051384	117.808650	86.076815	-0.292437	20.394807	22.234207	-1.685286	-0.194437	147.156237	89.173727	0.329362	1.987272
7.271186	7.675425	-17.279376	123.046356	0.172931	0.369898	0.655972	5.893766	3.032139	-27.727691	6.553763	0.114385	16.061575	5.782335	0.000000	8.288504	-1.524730	7.270548	3.496761	0.061030	17.715955	2.947016	0.000000	-0.136754	0.229969	-0.986203	-0.253965	0.305859	-1.047841	-0.224673	0.559147	-1.047841	-0.156296	0.559147	-0.862928	-0.126990	0.468953	-0.801290	-0.078141	0.356222	-0.739652	-0.976819	2.601455	-5.484965	0.000000	0.000000	6.252479	2.769607	22.738772	15.029056	-19.841065	31.551950	117.781773	87.955550	-0.400776	19.045406	22.207810	-1.881342	-0.559995	146.905851	89.169028	-0.387740	1.140369
7.288136	7.640632	-17.125993	123.315028	0.172040	0.369533	0.655620	5.717512	3.016852	-28.176496	6.710455	0.117120	16.064385	5.700325	0.000000	8.084946	-1.515860	8.329934	3.537939	0.061749	17.558031	1.808234	0.000000	-0.136636	0.230020	-1.109077	-0.253746	0.305926	-1.178394	-0.224479	0.559270	-1.178394	-0.156161	0.559270	-0.970442	-0.126880	0.469056	-0.901125	-0.078074	0.356300	-0.831808	-0.975975	2.602028	-6.168354	0.000000	0.000000	5.736051	3.094691	23.939689	15.450669	-19.826358	32.391847	117.697192	89.301032	-1.090794	17.485925	22.015647	-2.093596	-0.852688	146.628422	89.163585	-1.229344	0.121028
7.305085	7.606840	-16.969051	123.561425	0.171087	0.369136	0.655121	5.537187	3.002649	-28.544196	6.880888	0.120094	16.064993	5.552010	0.000000	7.849525	-1.513941	9.403820	3.545548	0.061881	17.399490	0.661360	0.000000	-0.133234	0.231350	-1.241770	-0.247428	0.307695	-1.319380	-0.218889	0.562503	-1.319380	-0.152273	0.562503	-1.086548	-0.123721	0.471768	-1.008938	-0.076130	0.358361	-0.931327	-0.951674	2.617073	-6.906350	0.000000	0.000000	5.153662	3.466367	25.232802	15.891790	-19.848805	33.326263	117.578863	90.123829	-1.721657	16.140346	21.630396	-2.269862	-1.080034	146.343026	89.159297	-2.102483	-0.965519
7.322034	7.563410	-16.806048	123.766107	0.170148	0.368749	0.654516	5.361987	2.981830	-28.772451	7.083938	0.123638	16.051839	5.260187	0.000000	7.584867	-1.517433	10.356278	3.527620	0.061569	17.262974	-0.306499	0.000000	-0.130675	0.233176	-1.374021	-0.242676	0.310124	-1.459897	-0.214685	0.566945	-1.459897	-0.149348	0.566945	-1.202268	-0.121344	0.475493	-1.116392	-0.074667	0.361190	-1.030516	-0.933395	2.637737	-7.641892	0.000000	0.000000	4.545401	3.873403	26.602637	16.339431	-19.894433	34.284134	117.436496	90.658091	-2.279994	15.133264	21.064539	-2.409030	-1.244081	146.089476	89.154754	-3.015660	-1.981071
7.338983	7.531814	-16.651892	123.929137	0.169239	0.368380	0.653827	5.205886	2.970287	-28.862781	7.289555	0.127227	15.992798	4.837573	0.000000	7.312892	-1.536881	11.109495	3.471687	0.060592	17.164337	-1.002140	0.000000	-0.126673	0.236357	-1.493984	-0.235245	0.314354	-1.587358	-0.208112	0.574678	-1.587358	-0.144775	0.574678	-1.307236	-0.117629	0.481979	-1.213862	-0.072381	0.366117	-1.120488	-0.904815	2.673714	-8.309088	0.000000	0.000000	3.976182	4.212319	27.819124	16.718301	-19.966408	35.167405	117.243270	90.888662	-2.650683	14.479670	20.306685	-2.454642	-1.389035	145.848582	89.153135	-3.697055	-3.091395
7.355932	7.503102	-16.525373	124.039446	0.168427	0.368031	0.653113	5.095027	2.945531	-28.819757	7.518756	0.131227	15.916770	4.310268	0.000000	7.065630	-1.556816	11.609390	3.407893	0.059479	17.122227	-1.371152	0.000000	-0.122164	0.238076	-1.585726	-0.226871	0.316641	-1.684834	-0.200704	0.578859	-1.684834	-0.139622	0.578859	-1.387511	-0.113442	0.485485	-1.288403	-0.069805	0.368780	-1.189295	-0.872607	2.693167	-8.819334	0.000000	0.000000	3.504720	4.518838	28.810370	16.923443	-20.030202	35.796680	117.000134	91.066168	-2.682390	14.308981	19.430502	-2.394119	-1.483555	145.671624	89.151970	-4.189937	-4.012968
7.372881	7.490490	-16.412361	124.091035	0.167709	0.367742	0.652426	5.018123	2.930135	-28.646365	7.749805	0.135260	15.803270	3.702083	0.000000	6.837375	-1.595542	11.844135	3.332530	0.058164	17.145562	-1.419944	0.000000	-0.119601	0.241846	-1.651169	-0.222111	0.321655	-1.754367	-0.196492	0.588025	-1.754367	-0.136692	0.588025	-1.444773	-0.111061	0.493173	-1.341575	-0.068340	0.374620	-1.238377	-0.854298	2.735812	-9.183305	0.000000	0.000000	3.157889	4.677669	29.561217	17.023535	-20.141976	36.282486	116.650757	90.698997	-2.546399	14.541323	18.465683	-2.236809	-1.567252	145.557960	89.152610	-4.536568	-4.906214
7.389831	7.499321	-16.330630	124.101172	0.167110	0.367493	0.651808	4.999059	2.916040	-28.393677	7.986391	0.139389	15.684465	3.079367	0.000000	6.654432	-1.647706	11.820607	3.252547	0.056768	17.236268	-1.154165	0.000000	-0.117033	0.246197	-1.682374	-0.217343	0.327442	-1.787523	-0.192274	0.598604	-1.787523	-0.133757	0.598604	-1.472078	-0.108677	0.502045	-1.366929	-0.066873	0.381359	-1.261781	-0.835958	2.785031	-9.356861	0.000000	0.000000	2.929915	4.757051	30.066246	16.926189	-20.284975	36.522780	116.205683	89.851740	-2.252526	15.162446	17.518187	-1.990056	-1.586864	145.502244	89.155149	-4.842685	-5.639365
7.406780	7.527452	-16.273918	124.095330	0.166639	0.367299	0.651320	5.028391	2.903402	-28.123575	8.211803	0.143323	15.597769	2.533282	0.000000	6.534227	-1.712210	11.551970	3.207275	0.055978	17.411794	-0.584361	0.000000	-0.116549	0.251061	-1.685701	-0.216443	0.333911	-1.791058	-0.191478	0.610429	-1.791058	-0.133204	0.610429	-1.474989	-0.108227	0.511963	-1.369632	-0.066596	0.388893	-1.264276	-0.832496	2.840047	-9.375366	0.000000	0.000000	2.826720	4.742360	30.364856	16.667497	-20.468909	36.574997	115.611245	88.222391	-1.860947	16.151299	16.687230	-1.669418	-1.583902	145.483717	89.161417	-5.042676	-6.179152
7.423729	7.577874	-16.248051	124.053852	0.166340	0.367133	0.650950	5.117071	2.901851	-27.736410	8.417995	0.146922	15.559292	1.983660	0.000000	6.473334	-1.792723	11.045580	3.184294	0.055576	17.667511	0.253341	0.000000	-0.116564	0.255287	-1.643533	-0.216471	0.339531	-1.746254	-0.191503	0.620704	-1.746254	-0.133221	0.620704	-1.438092	-0.108241	0.520581	-1.335371	-0.066605	0.395439	-1.232650	-0.832603	2.887854	-9.140839	0.000000	0.000000	2.827577	4.629999	30.369624	16.144421	-20.676980	36.326336	114.886203	86.036551	-1.438441	17.526436	16.102278	-1.275062	-1.457290	145.431813	89.172246	-5.215096	-6.507439
7.440678	7.638930	-16.250510	123.972426	0.166256	0.366989	0.650719	5.254350	2.903302	-27.288992	8.592521	0.149968	15.613198	1.529776	0.000000	6.478279	-1.878763	10.320662	3.213033	0.056078	18.011774	1.290204	0.000000	-0.118014	0.256434	-1.556777	-0.219164	0.341057	-1.654075	-0.193885	0.623493	-1.654075	-0.134878	0.623493	-1.362180	-0.109588	0.522920	-1.264881	-0.067433	0.397216	-1.167583	-0.842962	2.900830	-8.658326	0.000000	0.000000	2.928624	4.449696	30.021848	15.417992	-20.923503	35.877749	113.988845	82.838027	-1.152183	19.282558	15.852180	-0.844833	-1.214327	145.305325	89.187600	-5.289790	-6.609750
7.457627	7.709751	-16.283302	123.923623	0.166323	0.366856	0.650609	5.436227	2.907603	-26.790400	8.734100	0.152439	15.744608	1.066325	0.000000	6.563626	-1.961706	9.504505	3.308980	0.057753	18.424787	2.462444	0.000000	-0.119694	0.255100	-1.451618	-0.222284	0.339283	-1.542345	-0.196646	0.620250	-1.542345	-0.136799	0.620250	-1.270166	-0.111148	0.520200	-1.179440	-0.068393	0.395150	-1.088714	-0.854965	2.885743	-8.073466	0.000000	0.000000	3.048711	4.315445	29.641286	14.500034	-21.132231	35.227434	112.874426	79.602847	-0.802766	21.228269	15.938007	-0.472421	-0.860038	145.143022	89.206607	-5.478214	-6.490007
7.474576	7.763813	-16.342275	123.861938	0.166573	0.366731	0.650622	5.650137	2.895121	-26.201442	8.857811	0.154598	15.956459	0.586415	0.000000	6.703958	-2.016526	8.737198	3.466537	0.060502	18.869321	3.495737	0.000000	-0.124426	0.248128	-1.322831	-0.231072	0.330010	-1.405508	-0.204420	0.603298	-1.405508	-0.142207	0.603298	-1.157477	-0.115542	0.505982	-1.074800	-0.071097	0.384350	-0.992123	-0.888765	2.806872	-7.357187	0.000000	0.000000	3.259609	4.136750	29.079779	13.470041	-21.337450	34.514407	111.562659	76.595157	-0.594104	23.289718	16.402239	-0.179073	-0.348894	144.914596	89.229124	-5.826128	-6.228734
7.491525	7.808289	-16.425534	123.802797	0.166966	0.366593	0.650730	5.890940	2.875597	-25.534095	8.963650	0.156445	16.200561	0.029904	0.000000	6.899613	-2.053734	7.929112	3.681486	0.064254	19.357650	4.541750	0.000000	-0.130779	0.236683	-1.186527	-0.242869	0.314788	-1.260685	-0.214857	0.575471	-1.260685	-0.149467	0.575471	-1.038211	-0.121441	0.482644	-0.964053	-0.074727	0.366622	-0.889895	-0.934141	2.677403	-6.599106	0.000000	0.000000	3.548172	3.962496	28.462699	12.384029	-21.509397	33.790475	110.021223	74.117803	-0.353992	25.252164	17.202298	-0.002089	0.221791	144.678215	89.253366	-6.211933	-5.727828
